<?xml version="1.0" encoding="UTF-8"?>
<svg xmlns="http://www.w3.org/2000/svg" xmlns:xlink="http://www.w3.org/1999/xlink" width="40px" height="40px" viewBox="0 0 40 40" version="1.1">
<g id="surface1">
<path style=" stroke:none;fill-rule:evenodd;fill:rgb(0%,0%,0%);fill-opacity:1;" d="M 8.867188 14.832031 C 6.820312 17.242188 4.851562 20.226562 4.832031 22.457031 C 4.824219 23.300781 5.09375 24.03125 5.738281 24.585938 C 6.664062 25.386719 7.679688 25.667969 8.695312 25.667969 C 10.179688 25.675781 11.648438 25.074219 12.804688 24.613281 C 14.75 23.835938 36.210938 14.511719 36.210938 14.511719 C 36.417969 14.414062 36.382812 14.28125 36.117188 14.351562 C 36.011719 14.375 12.75 20.675781 12.75 20.675781 C 12.3125 20.800781 11.855469 20.867188 11.398438 20.867188 C 9.613281 20.882812 8.019531 19.886719 8.03125 17.800781 C 8.039062 16.980469 8.289062 15.992188 8.867188 14.832031 "/>
</g>
</svg>
